<?xml version="1.0" encoding="UTF-8" standalone="no"?>
<svg
   xmlns:dc="http://purl.org/dc/elements/1.1/"
   xmlns:cc="http://creativecommons.org/ns#"
   xmlns:rdf="http://www.w3.org/1999/02/22-rdf-syntax-ns#"
   xmlns:svg="http://www.w3.org/2000/svg"
   xmlns="http://www.w3.org/2000/svg"
   xmlns:sodipodi="http://sodipodi.sourceforge.net/DTD/sodipodi-0.dtd"
   xmlns:inkscape="http://www.inkscape.org/namespaces/inkscape"
   width="336"
   height="336"
   viewBox="0 0 336 336"
   fill="none"
   version="1.1"
   id="svg24"
   sodipodi:docname="logo-alt.svg"
   inkscape:export-filename="/home/evan/Code/Repos/morse-transmitter/icons/logo-alt-512.png"
   inkscape:export-xdpi="146.58165"
   inkscape:export-ydpi="146.58165"
   inkscape:version="1.0.2 (e86c870879, 2021-01-15, custom)">
  <metadata
     id="metadata30">
    <rdf:RDF>
      <cc:Work
         rdf:about="">
        <dc:format>image/svg+xml</dc:format>
        <dc:type
           rdf:resource="http://purl.org/dc/dcmitype/StillImage" />
      </cc:Work>
    </rdf:RDF>
  </metadata>
  <defs
     id="defs28" />
  <sodipodi:namedview
     pagecolor="#ffffff"
     bordercolor="#666666"
     borderopacity="1"
     objecttolerance="10"
     gridtolerance="10"
     guidetolerance="10"
     inkscape:pageopacity="0"
     inkscape:pageshadow="2"
     inkscape:window-width="1920"
     inkscape:window-height="1052"
     id="namedview26"
     showgrid="false"
     inkscape:zoom="1.575778"
     inkscape:cx="130.51896"
     inkscape:cy="174.39085"
     inkscape:window-x="0"
     inkscape:window-y="0"
     inkscape:window-maximized="1"
     inkscape:current-layer="svg24" />
  <path
     d="M267.156 336.708H68.9208C30.696 336.708 0.0273438 305.599 0.0273438 267.824V69.6156C0.0273438 31.396 31.1405 0.731445 68.9208 0.731445H266.712C304.936 0.731445 335.605 31.8404 335.605 69.6156V267.38C336.05 305.599 305.381 336.708 267.156 336.708Z"
     fill="#353535"
     id="path2" />
  <path
     d="M204.486 106.502C213.814 106.502 221.376 98.9411 221.376 89.6143C221.376 80.2875 213.814 72.7266 204.486 72.7266C195.158 72.7266 187.596 80.2875 187.596 89.6143C187.596 98.9411 195.158 106.502 204.486 106.502Z"
     fill="#F5DF4D"
     id="path4" />
  <path
     d="M84.4783 159.387C93.8064 159.387 101.368 151.827 101.368 142.5C101.368 133.173 93.8064 125.612 84.4783 125.612C75.1502 125.612 67.5884 133.173 67.5884 142.5C67.5884 151.827 75.1502 159.387 84.4783 159.387Z"
     fill="#F5DF4D"
     id="path6" />
  <path
     d="M204.486 211.828C213.814 211.828 221.376 204.267 221.376 194.94C221.376 185.613 213.814 178.052 204.486 178.052C195.158 178.052 187.596 185.613 187.596 194.94C187.596 204.267 195.158 211.828 204.486 211.828Z"
     fill="#F5DF4D"
     id="path8" />
  <path
     d="M251.601 211.828C260.929 211.828 268.491 204.267 268.491 194.94C268.491 185.613 260.929 178.052 251.601 178.052C242.273 178.052 234.711 185.613 234.711 194.94C234.711 204.267 242.273 211.828 251.601 211.828Z"
     fill="#F5DF4D"
     id="path10" />
  <path
     d="M251.601 159.387C260.929 159.387 268.491 151.827 268.491 142.5C268.491 133.173 260.929 125.612 251.601 125.612C242.273 125.612 234.711 133.173 234.711 142.5C234.711 151.827 242.273 159.387 251.601 159.387Z"
     fill="#F5DF4D"
     id="path12" />
  <path
     d="M157.372 106.502H84.034C74.7 106.502 67.144 98.947 67.144 89.6143C67.144 80.2816 74.7 72.7266 84.034 72.7266H157.372C166.706 72.7266 174.262 80.2816 174.262 89.6143C174.262 98.947 166.706 106.502 157.372 106.502Z"
     fill="#F5DF4D"
     id="path14" />
  <path
     d="M84.4783 264.269C93.8064 264.269 101.368 256.708 101.368 247.381C101.368 238.055 93.8064 230.494 84.4783 230.494C75.1502 230.494 67.5884 238.055 67.5884 247.381C67.5884 256.708 75.1502 264.269 84.4783 264.269Z"
     fill="#F5DF4D"
     id="path16" />
  <path
     d="M204.486 264.269H131.148C121.814 264.269 114.258 256.714 114.258 247.381C114.258 238.049 121.814 230.494 131.148 230.494H204.486C213.82 230.494 221.376 238.049 221.376 247.381C221.376 256.714 213.82 264.269 204.486 264.269Z"
     fill="#F5DF4D"
     id="path18" />
  <path
     d="M204.486 159.387H131.148C121.814 159.387 114.258 151.832 114.258 142.5C114.258 133.167 121.814 125.612 131.148 125.612H204.486C213.82 125.612 221.376 133.167 221.376 142.5C221.376 151.832 213.82 159.387 204.486 159.387Z"
     fill="#F5DF4D"
     id="path20" />
  <path
     d="M157.372 211.828H84.0335C74.6996 211.828 67.1436 204.273 67.1436 194.94C67.1436 185.607 74.6996 178.052 84.0335 178.052H157.372C166.706 178.052 174.262 185.607 174.262 194.94C174.262 204.273 166.706 211.828 157.372 211.828Z"
     fill="#F5DF4D"
     id="path22" />
</svg>
