<?xml version="1.0" encoding="UTF-8" standalone="no"?>
<svg
   xmlns:dc="http://purl.org/dc/elements/1.1/"
   xmlns:cc="http://creativecommons.org/ns#"
   xmlns:rdf="http://www.w3.org/1999/02/22-rdf-syntax-ns#"
   xmlns:svg="http://www.w3.org/2000/svg"
   xmlns="http://www.w3.org/2000/svg"
   xmlns:sodipodi="http://sodipodi.sourceforge.net/DTD/sodipodi-0.dtd"
   xmlns:inkscape="http://www.inkscape.org/namespaces/inkscape"
   width="336"
   height="337"
   viewBox="0 0 336 337"
   fill="none"
   version="1.1"
   id="svg24"
   sodipodi:docname="logo-alt-maskable.svg"
   inkscape:export-filename="/home/evan/Code/Repos/morse-transmitter/icons/logo-alt-maskable-144.png"
   inkscape:export-xdpi="41.27"
   inkscape:export-ydpi="41.27"
   inkscape:version="1.0.2 (e86c870879, 2021-01-15, custom)">
  <metadata
     id="metadata30">
    <rdf:RDF>
      <cc:Work
         rdf:about="">
        <dc:format>image/svg+xml</dc:format>
        <dc:type
           rdf:resource="http://purl.org/dc/dcmitype/StillImage" />
        <dc:title></dc:title>
      </cc:Work>
    </rdf:RDF>
  </metadata>
  <defs
     id="defs28" />
  <sodipodi:namedview
     pagecolor="#ffffff"
     bordercolor="#666666"
     borderopacity="1"
     objecttolerance="10"
     gridtolerance="10"
     guidetolerance="10"
     inkscape:pageopacity="0"
     inkscape:pageshadow="2"
     inkscape:window-width="1920"
     inkscape:window-height="1052"
     id="namedview26"
     showgrid="false"
     inkscape:zoom="1.575778"
     inkscape:cx="130.51896"
     inkscape:cy="174.39085"
     inkscape:window-x="0"
     inkscape:window-y="0"
     inkscape:window-maximized="1"
     inkscape:current-layer="svg24" />
  <rect
     style="fill:#353535;fill-opacity:1;stroke:none;stroke-width:6.03965"
     id="rect911"
     width="335"
     height="335"
     x="0.58750731"
     y="0.61477572"
     inkscape:export-xdpi="146.58165"
     inkscape:export-ydpi="146.58165" />
  <g
     id="g923"
     transform="matrix(0.8207905,0,0,0.8207905,30.344662,29.813382)"
     inkscape:export-xdpi="146.58165"
     inkscape:export-ydpi="146.58165">
    <path
       d="m 204.486,106.502 c 9.328,0 16.89,-7.5609 16.89,-16.8877 0,-9.3268 -7.562,-16.8877 -16.89,-16.8877 -9.328,0 -16.89,7.5609 -16.89,16.8877 0,9.3268 7.562,16.8877 16.89,16.8877 z"
       fill="#f5df4d"
       id="path4" />
    <path
       d="m 84.4783,159.387 c 9.3281,0 16.8897,-7.56 16.8897,-16.887 0,-9.327 -7.5616,-16.888 -16.8897,-16.888 -9.3281,0 -16.8899,7.561 -16.8899,16.888 0,9.327 7.5618,16.887 16.8899,16.887 z"
       fill="#f5df4d"
       id="path6" />
    <path
       d="m 204.486,211.828 c 9.328,0 16.89,-7.561 16.89,-16.888 0,-9.327 -7.562,-16.888 -16.89,-16.888 -9.328,0 -16.89,7.561 -16.89,16.888 0,9.327 7.562,16.888 16.89,16.888 z"
       fill="#f5df4d"
       id="path8" />
    <path
       d="m 251.601,211.828 c 9.328,0 16.89,-7.561 16.89,-16.888 0,-9.327 -7.562,-16.888 -16.89,-16.888 -9.328,0 -16.89,7.561 -16.89,16.888 0,9.327 7.562,16.888 16.89,16.888 z"
       fill="#f5df4d"
       id="path10" />
    <path
       d="m 251.601,159.387 c 9.328,0 16.89,-7.56 16.89,-16.887 0,-9.327 -7.562,-16.888 -16.89,-16.888 -9.328,0 -16.89,7.561 -16.89,16.888 0,9.327 7.562,16.887 16.89,16.887 z"
       fill="#f5df4d"
       id="path12" />
    <path
       d="M 157.372,106.502 H 84.034 c -9.334,0 -16.89,-7.555 -16.89,-16.8877 0,-9.3327 7.556,-16.8877 16.89,-16.8877 h 73.338 c 9.334,0 16.89,7.555 16.89,16.8877 0,9.3327 -7.556,16.8877 -16.89,16.8877 z"
       fill="#f5df4d"
       id="path14" />
    <path
       d="m 84.4783,264.269 c 9.3281,0 16.8897,-7.561 16.8897,-16.888 0,-9.326 -7.5616,-16.887 -16.8897,-16.887 -9.3281,0 -16.8899,7.561 -16.8899,16.887 0,9.327 7.5618,16.888 16.8899,16.888 z"
       fill="#f5df4d"
       id="path16" />
    <path
       d="m 204.486,264.269 h -73.338 c -9.334,0 -16.89,-7.555 -16.89,-16.888 0,-9.332 7.556,-16.887 16.89,-16.887 h 73.338 c 9.334,0 16.89,7.555 16.89,16.887 0,9.333 -7.556,16.888 -16.89,16.888 z"
       fill="#f5df4d"
       id="path18" />
    <path
       d="m 204.486,159.387 h -73.338 c -9.334,0 -16.89,-7.555 -16.89,-16.887 0,-9.333 7.556,-16.888 16.89,-16.888 h 73.338 c 9.334,0 16.89,7.555 16.89,16.888 0,9.332 -7.556,16.887 -16.89,16.887 z"
       fill="#f5df4d"
       id="path20" />
    <path
       d="M 157.372,211.828 H 84.0335 c -9.3339,0 -16.8899,-7.555 -16.8899,-16.888 0,-9.333 7.556,-16.888 16.8899,-16.888 h 73.3385 c 9.334,0 16.89,7.555 16.89,16.888 0,9.333 -7.556,16.888 -16.89,16.888 z"
       fill="#f5df4d"
       id="path22" />
  </g>
</svg>
