<?xml version="1.0" encoding="UTF-8"?>
<svg width="337" height="337" fill="none" version="1.1" viewBox="0 0 337 337" xmlns="http://www.w3.org/2000/svg" xmlns:cc="http://creativecommons.org/ns#" xmlns:dc="http://purl.org/dc/elements/1.1/" xmlns:rdf="http://www.w3.org/1999/02/22-rdf-syntax-ns#"><metadata><rdf:RDF><cc:Work rdf:about=""><dc:format>image/svg+xml</dc:format><dc:type rdf:resource="http://purl.org/dc/dcmitype/StillImage"/><dc:title/></cc:Work></rdf:RDF></metadata><rect x=".66455" y=".73144" width="335.58" height="335.54" rx="75" fill="#353535"/><g fill="#F5DF4D"><path d="m279.02 74.43c0 0.8988 0 1.7976-0.299 2.6964-0.6 2.6963-1.798 5.3925-3.296 7.4896l-2.098 2.0971-187.87 187.84c-0.2997 0.299-0.5993 0.599-0.5993 0.599-0.2996 0.299-0.5992 0.599-0.5992 0.599-2.0974 1.798-4.7941 2.996-7.4907 3.295-0.8989 0-1.7978 0.3-2.6966 0.3-8.9889 0-16.48-7.19-16.48-16.178v-167.17c0-20.971 17.079-38.347 38.352-38.347h167.49c8.09 0.5992 15.58 7.7892 15.58 16.777z"/><path d="m265.54 136.14c7.447 0 13.483-6.035 13.483-13.481s-6.036-13.481-13.483-13.481-13.483 6.035-13.483 13.481 6.036 13.481 13.483 13.481z"/><path d="m265.54 172.1c7.447 0 13.483-6.036 13.483-13.482 0-7.445-6.036-13.481-13.483-13.481s-13.483 6.036-13.483 13.481c0 7.446 6.036 13.482 13.483 13.482z"/><path d="m229.58 172.1c7.447 0 13.484-6.036 13.484-13.482 0-7.445-6.037-13.481-13.484-13.481-7.446 0-13.483 6.036-13.483 13.481 0 7.446 6.037 13.482 13.483 13.482z"/><path d="m157.67 244c7.446 0 13.483-6.036 13.483-13.482 0-7.445-6.037-13.481-13.483-13.481-7.447 0-13.483 6.036-13.483 13.481 0 7.446 6.036 13.482 13.483 13.482z"/><path d="m121.71 279.95c7.446 0 13.483-6.036 13.483-13.481 0-7.446-6.037-13.482-13.483-13.482-7.447 0-13.484 6.036-13.484 13.482 0 7.445 6.037 13.481 13.484 13.481z"/><path d="m265.54 279.95c7.447 0 13.483-6.036 13.483-13.481 0-7.446-6.036-13.482-13.483-13.482s-13.483 6.036-13.483 13.482c0 7.445 6.036 13.481 13.483 13.481z"/><path d="m265.54 208.04h-71.911c-7.49 0-13.483-5.991-13.483-13.481s5.993-13.481 13.483-13.481h71.911c7.491 0 13.483 5.991 13.483 13.481s-5.992 13.481-13.483 13.481z"/><path d="m265.54 244h-71.911c-7.49 0-13.483-5.992-13.483-13.482 0-7.489 5.993-13.481 13.483-13.481h71.911c7.491 0 13.483 5.992 13.483 13.481 0 7.49-5.992 13.482-13.483 13.482z"/><path d="m229.58 279.95h-71.91c-7.491 0-13.483-5.992-13.483-13.481 0-7.49 5.992-13.482 13.483-13.482h71.91c7.491 0 13.484 5.992 13.484 13.482 0 7.489-5.993 13.481-13.484 13.481z"/></g><path d="m130.58 140.75h-32.005l-9.045 22.609c-0.3479 1.043-0.6957 2.087-0.6957 2.783 0 2.087 2.783 3.478 8.697 4.174 0.6958 0 1.0436 0.347 1.3915 0.695s0.3479 1.044 0.3479 1.392c0 0.695 0 1.391-0.3479 2.087-2.4351-0.348-5.2182-0.348-8.3491-0.348-3.131 0-5.5662-0.348-8.3492-0.348h-5.914c-2.0873 0-4.1746 0.348-6.2619 0.696-0.3479-0.696-0.3479-1.392-0.3479-2.087 0-0.696 0-1.044 0.3479-1.74 0.3479-0.347 0.6958-0.695 1.3916-0.695 3.1309-0.348 5.2182-1.044 6.6097-1.739 1.3915-0.696 2.4352-1.74 3.131-3.131l34.441-81.046c0.695-1.7392 1.739-2.4348 2.783-2.4348 0.348 0 1.043-1e-4 1.739 0.3478l34.788 83.481c0.696 1.391 1.74 2.435 3.827 3.13 2.087 0.696 3.827 1.392 5.914 1.392 0.696 0.348 1.044 0.348 1.391 0.695 0.348 0.348 0.348 1.044 0.348 1.74 0 0.695 0 1.391-0.348 2.087-3.13-0.348-5.914-0.348-9.044-0.348-3.131 0-5.914-0.348-8.35-0.348-2.783 0-5.914 0-9.045 0.348-3.478 0-6.609 0.348-9.392 0.348-0.348-1.044-0.348-1.74-0.348-2.087 0-0.696 0-1.392 0.348-1.74 0.348-0.347 0.695-0.347 1.043-0.347 2.435-0.348 4.523-1.044 5.914-1.74 1.392-0.695 2.435-1.391 2.435-2.782 0-0.696-0.347-1.392-0.695-2.087l-8.35-22.957zm-2.087-5.566-13.219-34.088-13.916 34.088h27.135z" fill="#353535" stroke="#353535" stroke-width="2"/></svg>
