<?xml version="1.0" encoding="UTF-8"?>
<svg width="16" height="16" fill="none" version="1.1" viewBox="0 0 16 16" xmlns="http://www.w3.org/2000/svg"><g fill="#000" stroke-width=".068588"><path d="m14.667 5.7559c0.51078 0 0.92478-0.41393 0.92478-0.92464 0-0.51071-0.414-0.92464-0.92478-0.92464s-0.92478 0.41393-0.92478 0.92464c0 0.51071 0.414 0.92464 0.92478 0.92464z"/><path d="m3.0356 0.37225c-1.4591 0-2.6305 1.1918-2.6305 2.6302v11.466c0 0.61647 0.51383 1.1096 1.1304 1.1096 0.061647 0 0.12321-0.02062 0.18487-0.02062 0.18496-0.0205 0.36989-0.10267 0.51374-0.22599 0 0 0.020577-0.02062 0.041126-0.04112 0 0 0.02057-0.02048 0.041126-0.04098l12.885-12.884 0.14401-0.14387c0.10275-0.14384 0.18484-0.32867 0.22599-0.51361 0.0205-0.061647 0.0205-0.12335 0.0205-0.185 0-0.61644-0.51373-1.1096-1.0686-1.1507h-0.3905zm1.5406 1.6438c0.023869 0 0.071488-1.68e-5 0.11923 0.023846l2.3861 5.7258c0.047736 0.095407 0.11929 0.16707 0.26243 0.21474 0.14314 0.047736 0.26249 0.095515 0.40564 0.095515 0.047736 0.023869 0.071581 0.023756 0.095379 0.047556 0.023869 0.023869 0.023846 0.071623 0.023846 0.11936 0 0.047669 2.31e-5 0.095467-0.023846 0.14321-0.21468-0.023868-0.40556-0.023845-0.62024-0.023845-0.21475 0-0.4056-0.023846-0.57269-0.023846-0.19088 0-0.40563-2.42e-5 -0.62038 0.023846-0.23855 0-0.45334 0.023846-0.64422 0.023846-0.02387-0.071606-0.023846-0.1194-0.023846-0.14321 0-0.047736-2.33e-5 -0.095492 0.023846-0.11936 0.023869-0.023801 0.047666-0.023712 0.071534-0.023712 0.16701-0.023869 0.31023-0.071621 0.40564-0.11936 0.095475-0.047667 0.16705-0.095355 0.16705-0.19076 0-0.047736-0.023823-0.095536-0.04769-0.14321l-0.57282-1.5746h-2.1951l-0.62038 1.5507c-0.023862 0.071537-0.04769 0.14316-0.04769 0.19089 0 0.14314 0.1909 0.23854 0.59653 0.28628 0.047724 0 0.071518 0.02382 0.09538 0.04769 0.023862 0.023869 0.023846 0.071513 0.023846 0.09538 0 0.047669 1.68e-5 0.095467-0.023846 0.14321-0.16702-0.023869-0.35794-0.023846-0.57269-0.023846-0.21475 0-0.38167-0.023846-0.57255-0.023846h-0.40564c-0.14316 0-0.28632 0.023823-0.42948 0.04769-0.023862-0.047738-0.023979-0.095536-0.023979-0.14321 0-0.047736 1.159e-4 -0.071623 0.023979-0.11936 0.023862-0.023801 0.047656-0.047556 0.09538-0.047556 0.21474-0.023865 0.35789-0.071687 0.45333-0.11936 0.095441-0.047738 0.16702-0.11933 0.21474-0.21474l2.3623-5.5587c0.047669-0.11929 0.11929-0.16705 0.1909-0.16705zm-0.21474 1.336-0.95448 2.338h1.8611z"/><path d="m14.667 8.2217c0.51078 0 0.92478-0.414 0.92478-0.92471 0-0.51064-0.414-0.92464-0.92478-0.92464s-0.92478 0.414-0.92478 0.92464c0 0.51071 0.414 0.92471 0.92478 0.92471z"/><path d="m12.201 8.2217c0.51078 0 0.92484-0.414 0.92484-0.92471 0-0.51064-0.41407-0.92464-0.92484-0.92464-0.51071 0-0.92478 0.414-0.92478 0.92464 0 0.51071 0.41407 0.92471 0.92478 0.92471z"/><path d="m7.2691 13.153c0.51071 0 0.92478-0.414 0.92478-0.92471 0-0.51064-0.41407-0.92464-0.92478-0.92464-0.51078 0-0.92478 0.414-0.92478 0.92464 0 0.51071 0.414 0.92471 0.92478 0.92471z"/><path d="m4.803 15.619c0.51071 0 0.92478-0.414 0.92478-0.92464 0-0.51071-0.41407-0.92471-0.92478-0.92471-0.51078 0-0.92485 0.414-0.92485 0.92471 0 0.51064 0.41407 0.92464 0.92485 0.92464z"/><path d="m14.667 15.619c0.51078 0 0.92478-0.414 0.92478-0.92464 0-0.51071-0.414-0.92471-0.92478-0.92471s-0.92478 0.414-0.92478 0.92471c0 0.51064 0.414 0.92464 0.92478 0.92464z"/><path d="m14.667 10.687h-4.9323c-0.51373 0-0.92478-0.41091-0.92478-0.92464 0-0.51373 0.41105-0.92464 0.92478-0.92464h4.9323c0.5138 0 0.92478 0.41091 0.92478 0.92464 0 0.51373-0.41098 0.92464-0.92478 0.92464z"/><path d="m14.667 13.153h-4.9323c-0.51373 0-0.92478-0.41098-0.92478-0.92471 0-0.51366 0.41105-0.92464 0.92478-0.92464h4.9323c0.5138 0 0.92478 0.41098 0.92478 0.92464 0 0.51372-0.41098 0.92471-0.92478 0.92471z"/><path d="m12.201 15.619h-4.9322c-0.5138 0-0.92478-0.41098-0.92478-0.92464 0-0.51373 0.41098-0.92471 0.92478-0.92471h4.9322c0.5138 0 0.92484 0.41098 0.92484 0.92471 0 0.51366-0.41105 0.92464-0.92484 0.92464z"/></g></svg>
