<?xml version="1.0" encoding="UTF-8"?>
<svg width="336" height="337" fill="none" version="1.1" viewBox="0 0 336 337" xmlns="http://www.w3.org/2000/svg" xmlns:cc="http://creativecommons.org/ns#" xmlns:dc="http://purl.org/dc/elements/1.1/" xmlns:rdf="http://www.w3.org/1999/02/22-rdf-syntax-ns#"><metadata><rdf:RDF><cc:Work rdf:about=""><dc:format>image/svg+xml</dc:format><dc:type rdf:resource="http://purl.org/dc/dcmitype/StillImage"/><dc:title/></cc:Work></rdf:RDF></metadata><path d="m267.16 336.71h-198.24c-38.225 0-68.893-31.109-68.893-68.884v-198.21c0-38.22 31.113-68.884 68.893-68.884h197.79c38.224 0 68.893 31.109 68.893 68.884v197.76c0.445 38.219-30.224 69.328-68.449 69.328z" fill="#353535"/><g fill="#F5DF4D"><path d="m204.49 106.5c9.328 0 16.89-7.5609 16.89-16.888s-7.562-16.888-16.89-16.888-16.89 7.5609-16.89 16.888 7.562 16.888 16.89 16.888z"/><path d="m84.478 159.39c9.3281 0 16.89-7.56 16.89-16.887s-7.5616-16.888-16.89-16.888-16.89 7.561-16.89 16.888 7.5618 16.887 16.89 16.887z"/><path d="m204.49 211.83c9.328 0 16.89-7.561 16.89-16.888s-7.562-16.888-16.89-16.888-16.89 7.561-16.89 16.888 7.562 16.888 16.89 16.888z"/><path d="m251.6 211.83c9.328 0 16.89-7.561 16.89-16.888s-7.562-16.888-16.89-16.888-16.89 7.561-16.89 16.888 7.562 16.888 16.89 16.888z"/><path d="m251.6 159.39c9.328 0 16.89-7.56 16.89-16.887s-7.562-16.888-16.89-16.888-16.89 7.561-16.89 16.888 7.562 16.887 16.89 16.887z"/><path d="m157.37 106.5h-73.338c-9.334 0-16.89-7.555-16.89-16.888s7.556-16.888 16.89-16.888h73.338c9.334 0 16.89 7.555 16.89 16.888s-7.556 16.888-16.89 16.888z"/><path d="m84.478 264.27c9.3281 0 16.89-7.561 16.89-16.888 0-9.326-7.5616-16.887-16.89-16.887s-16.89 7.561-16.89 16.887c0 9.327 7.5618 16.888 16.89 16.888z"/><path d="m204.49 264.27h-73.338c-9.334 0-16.89-7.555-16.89-16.888 0-9.332 7.556-16.887 16.89-16.887h73.338c9.334 0 16.89 7.555 16.89 16.887 0 9.333-7.556 16.888-16.89 16.888z"/><path d="m204.49 159.39h-73.338c-9.334 0-16.89-7.555-16.89-16.887 0-9.333 7.556-16.888 16.89-16.888h73.338c9.334 0 16.89 7.555 16.89 16.888 0 9.332-7.556 16.887-16.89 16.887z"/><path d="m157.37 211.83h-73.338c-9.3339 0-16.89-7.555-16.89-16.888s7.556-16.888 16.89-16.888h73.338c9.334 0 16.89 7.555 16.89 16.888s-7.556 16.888-16.89 16.888z"/></g></svg>
