<?xml version="1.0" encoding="UTF-8" standalone="no"?>
<svg
   width="16"
   height="16"
   viewBox="0 0 16 16"
   fill="none"
   version="1.1"
   id="svg925"
   sodipodi:docname="logo-mask-apple.svg"
   inkscape:export-filename="/home/evan/Code/Repos/morse-transmitter/icons/logo-48.png"
   inkscape:export-xdpi="13.733211"
   inkscape:export-ydpi="13.733211"
   inkscape:version="1.1 (c4e8f9ed74, 2021-05-24)"
   xmlns:inkscape="http://www.inkscape.org/namespaces/inkscape"
   xmlns:sodipodi="http://sodipodi.sourceforge.net/DTD/sodipodi-0.dtd"
   xmlns="http://www.w3.org/2000/svg"
   xmlns:svg="http://www.w3.org/2000/svg"
   xmlns:rdf="http://www.w3.org/1999/02/22-rdf-syntax-ns#"
   xmlns:cc="http://creativecommons.org/ns#"
   xmlns:dc="http://purl.org/dc/elements/1.1/">
  <metadata
     id="metadata931">
    <rdf:RDF>
      <cc:Work
         rdf:about="">
        <dc:format>image/svg+xml</dc:format>
        <dc:type
           rdf:resource="http://purl.org/dc/dcmitype/StillImage" />
      </cc:Work>
    </rdf:RDF>
  </metadata>
  <defs
     id="defs929" />
  <sodipodi:namedview
     pagecolor="#ffffff"
     bordercolor="#666666"
     borderopacity="1"
     objecttolerance="10"
     gridtolerance="10"
     guidetolerance="10"
     inkscape:pageopacity="0"
     inkscape:pageshadow="2"
     inkscape:window-width="1280"
     inkscape:window-height="967"
     id="namedview927"
     showgrid="false"
     inkscape:zoom="27.109792"
     inkscape:cx="8.4471323"
     inkscape:cy="9.922614"
     inkscape:window-x="0"
     inkscape:window-y="0"
     inkscape:window-maximized="1"
     inkscape:current-layer="svg925"
     inkscape:pagecheckerboard="0" />
  <path
     d="m 14.667446,5.7558596 c 0.510777,0 0.924776,-0.4139306 0.924776,-0.9246397 0,-0.510709 -0.413999,-0.9246398 -0.924776,-0.9246398 -0.510777,0 -0.924777,0.4139308 -0.924777,0.9246398 0,0.5107091 0.414,0.9246397 0.924777,0.9246397 z"
     fill="#F5DF4D"
     id="path905"
     style="fill:#000000;stroke-width:0.0685885" />
  <path
     id="path903"
     style="fill:#000000;stroke-width:0.0685885"
     d="m 3.0355651,0.37224526 c -1.4591145,0 -2.63047087,1.19182964 -2.63047087,2.63020314 V 14.468361 c 0,0.616472 0.51383451,1.109605 1.13036847,1.109605 0.061647,0 0.1232125,-0.02062 0.1848671,-0.02062 0.1849553,-0.0205 0.3698857,-0.102673 0.5137429,-0.225993 0,0 0.020577,-0.02062 0.041126,-0.04112 0,0 0.02057,-0.02048 0.041126,-0.04098 L 15.201696,2.3654745 15.345709,2.2215997 c 0.10275,-0.1438364 0.18484,-0.3286741 0.225993,-0.513609 0.0205,-0.061647 0.0205,-0.1233541 0.0205,-0.185001 0,-0.61644472 -0.513732,-1.10963238 -1.068612,-1.15073059 H 14.133093 Z M 4.5761243,2.0160888 c 0.023869,0 0.071488,-1.68e-5 0.1192261,0.023846 l 2.3861251,5.7257888 c 0.047736,0.095407 0.1192878,0.167072 0.2624311,0.2147401 0.1431437,0.047736 0.2624918,0.095515 0.405636,0.095515 0.047736,0.023869 0.071581,0.023756 0.095379,0.047556 0.023869,0.023869 0.023846,0.071623 0.023846,0.1193601 0,0.047669 2.31e-5,0.095467 -0.023846,0.1432053 -0.214681,-0.023868 -0.4055606,-0.023845 -0.620242,-0.023845 -0.2147504,0 -0.4056049,-0.023846 -0.5726857,-0.023846 -0.1908811,0 -0.4056267,-2.42e-5 -0.6203767,0.023846 -0.2385506,0 -0.4533398,0.023846 -0.6442209,0.023846 -0.02387,-0.071606 -0.023846,-0.1194047 -0.023846,-0.1432053 0,-0.047736 -2.33e-5,-0.095492 0.023846,-0.1193601 0.023869,-0.023801 0.047666,-0.023712 0.071534,-0.023712 0.1670125,-0.023869 0.31023,-0.071621 0.4056363,-0.1193601 0.095475,-0.047667 0.1670497,-0.095355 0.1670497,-0.190761 0,-0.047736 -0.023823,-0.095536 -0.04769,-0.1432053 L 5.4111074,6.0719116 H 3.2160116 L 2.5956351,7.6226521 c -0.023862,0.071537 -0.04769,0.1431576 -0.04769,0.1908949 0,0.1431437 0.1908996,0.2385385 0.5965312,0.2862764 0.047724,0 0.071518,0.02382 0.09538,0.04769 0.023862,0.023869 0.023846,0.071513 0.023846,0.09538 0,0.047669 1.68e-5,0.095467 -0.023846,0.1432053 -0.1670196,-0.023869 -0.3579428,-0.023846 -0.5726861,-0.023846 -0.2147502,0 -0.3816708,-0.023846 -0.5725521,-0.023846 h -0.405636 c -0.1431638,0 -0.2863165,0.023823 -0.429481,0.04769 -0.023862,-0.047738 -0.023979,-0.095536 -0.023979,-0.1432053 0,-0.047736 1.159e-4,-0.071623 0.023979,-0.1193601 0.023862,-0.023801 0.047656,-0.047556 0.09538,-0.047556 0.2147448,-0.023865 0.357887,-0.071687 0.4533277,-0.1193556 0.095441,-0.047738 0.1670169,-0.119334 0.2147406,-0.2147407 L 4.385229,2.1831389 C 4.432898,2.06385 4.504518,2.0160888 4.5761243,2.0160888 Z M 4.3613837,3.3520886 3.4069072,5.6901213 h 1.8611289 z" />
  <path
     d="m 14.667446,8.2216799 c 0.510777,0 0.924776,-0.4139992 0.924776,-0.9247082 0,-0.5106401 -0.413999,-0.9246395 -0.924776,-0.9246395 -0.510777,0 -0.924777,0.4139994 -0.924777,0.9246395 0,0.510709 0.414,0.9247082 0.924777,0.9247082 z"
     fill="#F5DF4D"
     id="path907"
     style="fill:#000000;stroke-width:0.0685885" />
  <path
     d="m 12.201282,8.2216799 c 0.510777,0 0.924845,-0.4139992 0.924845,-0.9247082 0,-0.5106401 -0.414068,-0.9246395 -0.924845,-0.9246395 -0.510708,0 -0.924778,0.4139994 -0.924778,0.9246395 0,0.510709 0.41407,0.9247082 0.924778,0.9247082 z"
     fill="#F5DF4D"
     id="path909"
     style="fill:#000000;stroke-width:0.0685885" />
  <path
     d="m 7.2690922,13.153253 c 0.5107091,0 0.924777,-0.414001 0.924777,-0.924708 0,-0.510641 -0.4140679,-0.924641 -0.924777,-0.924641 -0.5107777,0 -0.9247769,0.414 -0.9247769,0.924641 0,0.510707 0.4139992,0.924708 0.9247769,0.924708 z"
     fill="#F5DF4D"
     id="path911"
     style="fill:#000000;stroke-width:0.0685885" />
  <path
     d="m 4.8029974,15.619004 c 0.5107089,0 0.9247768,-0.413999 0.9247768,-0.924639 0,-0.510709 -0.4140679,-0.92471 -0.9247768,-0.92471 -0.5107776,0 -0.9248454,0.414001 -0.9248454,0.92471 0,0.51064 0.4140678,0.924639 0.9248454,0.924639 z"
     fill="#F5DF4D"
     id="path913"
     style="fill:#000000;stroke-width:0.0685885" />
  <path
     d="m 14.667446,15.619004 c 0.510777,0 0.924776,-0.413999 0.924776,-0.924639 0,-0.510709 -0.413999,-0.92471 -0.924776,-0.92471 -0.510777,0 -0.924777,0.414001 -0.924777,0.92471 0,0.51064 0.414,0.924639 0.924777,0.924639 z"
     fill="#F5DF4D"
     id="path915"
     style="fill:#000000;stroke-width:0.0685885" />
  <path
     d="M 14.667446,10.687432 H 9.7351869 c -0.5137276,0 -0.924777,-0.410912 -0.924777,-0.9246404 0,-0.5137262 0.4110494,-0.9246391 0.924777,-0.9246391 h 4.9322591 c 0.513795,0 0.924776,0.4109129 0.924776,0.9246391 0,0.5137284 -0.410981,0.9246404 -0.924776,0.9246404 z"
     fill="#F5DF4D"
     id="path917"
     style="fill:#000000;stroke-width:0.0685885" />
  <path
     d="M 14.667446,13.153253 H 9.7351869 c -0.5137276,0 -0.924777,-0.410983 -0.924777,-0.924708 0,-0.513658 0.4110494,-0.924641 0.924777,-0.924641 h 4.9322591 c 0.513795,0 0.924776,0.410983 0.924776,0.924641 0,0.513725 -0.410981,0.924708 -0.924776,0.924708 z"
     fill="#F5DF4D"
     id="path919"
     style="fill:#000000;stroke-width:0.0685885" />
  <path
     d="M 12.201282,15.619004 H 7.2690922 c -0.5137954,0 -0.9247769,-0.410981 -0.9247769,-0.924639 0,-0.513727 0.4109815,-0.92471 0.9247769,-0.92471 h 4.9321898 c 0.513796,0 0.924845,0.410983 0.924845,0.92471 0,0.513658 -0.411049,0.924639 -0.924845,0.924639 z"
     fill="#F5DF4D"
     id="path921"
     style="fill:#000000;stroke-width:0.0685885" />
</svg>
