<?xml version="1.0" encoding="UTF-8"?>
<svg width="144" height="144" version="1.1" viewBox="0 0 38.1 38.1" xmlns="http://www.w3.org/2000/svg" xmlns:cc="http://creativecommons.org/ns#" xmlns:dc="http://purl.org/dc/elements/1.1/" xmlns:rdf="http://www.w3.org/1999/02/22-rdf-syntax-ns#"><defs><filter id="filter1012" x="-.0005808" y="-.0005808" width="1.0012" height="1.0012" color-interpolation-filters="sRGB"><feGaussianBlur stdDeviation="0.018849449"/></filter></defs><metadata><rdf:RDF><cc:Work rdf:about=""><dc:format>image/svg+xml</dc:format><dc:type rdf:resource="http://purl.org/dc/dcmitype/StillImage"/><dc:title/></cc:Work></rdf:RDF></metadata><g transform="translate(-189.96 -155.19)"><g stroke-width=".91384"><g transform="matrix(1.7372 0 0 1.7372 -77.721 -92.557)"><rect x="66.484" y="86.61" width="77.89" height="77.89" fill="#fff" filter="url(#filter1012)" stroke="#000"/><g transform="translate(-3.8267e-6 .7945)"><text transform="translate(8.12 45.091)" fill="#000000" font-family="sans-serif" font-size="10.583px" style="line-height:1.25;shape-inside:url(#rect12);white-space:pre" xml:space="preserve"><tspan x="65.851562" y="107.06686"><tspan stroke-width=".91384">Morse Code</tspan></tspan></text><g><g transform="translate(0 -.79451)"><rect x="72.555" y="114.58" width="23.431" height="7.9899"/><circle cx="105.43" cy="118.57" r="4.601"/><rect x="114.87" y="114.58" width="23.431" height="7.9899"/></g><circle cx="77.156" cy="133.74" r="4.601"/><rect x="93.714" y="129.75" width="23.431" height="7.9899"/><circle cx="133.7" cy="133.74" r="4.601"/><g transform="translate(0 -31.93)"><circle cx="77.156" cy="133.74" r="4.601"/><rect x="93.714" y="129.75" width="23.431" height="7.9899"/><circle cx="133.7" cy="133.74" r="4.601"/></g></g></g></g><g transform="matrix(1.7372 0 0 1.7372 90.102 -92.557)"><g transform="matrix(.28125 0 0 .28125 38.794 118.27)" stroke-width="3.2492"><rect x="66.484" y="86.61" width="77.89" height="77.89" fill="#fff" filter="url(#filter1012)" stroke="#000"/><g transform="translate(-3.8267e-6 .7945)"><g transform="translate(0 6.9813)" stroke-width="3.2492"><g transform="translate(0 -.79451)"><rect x="72.555" y="114.58" width="23.431" height="7.9899"/><circle cx="105.43" cy="118.57" r="4.601"/><rect x="114.87" y="114.58" width="23.431" height="7.9899"/></g><circle cx="77.156" cy="133.74" r="4.601"/><rect x="93.714" y="129.75" width="23.431" height="7.9899"/><circle cx="133.7" cy="133.74" r="4.601"/><g transform="translate(0 -31.93)"><circle cx="77.156" cy="133.74" r="4.601"/><rect x="93.714" y="129.75" width="23.431" height="7.9899"/><circle cx="133.7" cy="133.74" r="4.601"/></g></g></g></g></g><g transform="matrix(1.7372 0 0 1.7372 148.94 -92.557)"><g transform="matrix(.28125 0 0 .28125 38.794 118.27)" stroke-width="3.2492"><g transform="matrix(.33333 0 0 .33333 31.826 109.7)"><rect x="66.484" y="86.61" width="77.89" height="77.89" fill="#fff" filter="url(#filter1012)" stroke="#000" stroke-width="9.7476"/><g transform="matrix(1.5022 0 0 1.5022 -32.237 -51.063)" stroke-width="3.2492"><rect x="87.3" y="105.59" width="23.431" height="7.9899"/><rect x="72.555" y="121.56" width="23.431" height="7.9899"/><circle cx="106.13" cy="125.56" r="4.601"/><circle cx="77.156" cy="109.59" r="4.601"/></g></g></g></g></g></g></svg>
