<?xml version="1.0" encoding="UTF-8" standalone="no"?>
<svg
   xmlns:dc="http://purl.org/dc/elements/1.1/"
   xmlns:cc="http://creativecommons.org/ns#"
   xmlns:rdf="http://www.w3.org/1999/02/22-rdf-syntax-ns#"
   xmlns:svg="http://www.w3.org/2000/svg"
   xmlns="http://www.w3.org/2000/svg"
   xmlns:sodipodi="http://sodipodi.sourceforge.net/DTD/sodipodi-0.dtd"
   xmlns:inkscape="http://www.inkscape.org/namespaces/inkscape"
   width="337"
   height="337"
   viewBox="0 0 337 337"
   fill="none"
   version="1.1"
   id="svg925"
   sodipodi:docname="logo-maskable.svg"
   inkscape:export-filename="/home/evan/Code/Repos/morse-transmitter/icons/logo-maskable-144.png"
   inkscape:export-xdpi="41.199631"
   inkscape:export-ydpi="41.199631"
   inkscape:version="1.0.2 (e86c870879, 2021-01-15, custom)">
  <metadata
     id="metadata931">
    <rdf:RDF>
      <cc:Work
         rdf:about="">
        <dc:format>image/svg+xml</dc:format>
        <dc:type
           rdf:resource="http://purl.org/dc/dcmitype/StillImage" />
        <dc:title />
      </cc:Work>
    </rdf:RDF>
  </metadata>
  <defs
     id="defs929" />
  <sodipodi:namedview
     pagecolor="#ffffff"
     bordercolor="#666666"
     borderopacity="1"
     objecttolerance="10"
     gridtolerance="10"
     guidetolerance="10"
     inkscape:pageopacity="0"
     inkscape:pageshadow="2"
     inkscape:window-width="1920"
     inkscape:window-height="1052"
     id="namedview927"
     showgrid="false"
     inkscape:zoom="1.694362"
     inkscape:cx="168.5"
     inkscape:cy="189.74694"
     inkscape:window-x="0"
     inkscape:window-y="0"
     inkscape:window-maximized="1"
     inkscape:current-layer="svg925"
     inkscape:document-rotation="0" />
  <rect
     x="0.66455102"
     y="0.73144501"
     width="335.58301"
     height="335.53699"
     rx="0"
     fill="#353535"
     id="rect901" />
  <g
     id="g920"
     transform="matrix(0.79727719,0,0,0.79727719,40.318857,39.993027)">
    <path
       d="m 263.84321,73.279841 c 0,0.837203 0,1.674406 -0.27851,2.511608 -0.55888,2.511516 -1.67478,5.022938 -3.07012,6.976318 l -1.95422,1.95338 L 83.549416,259.68918 c -0.27916,0.27851 -0.558228,0.55795 -0.558228,0.55795 -0.279068,0.27851 -0.558135,0.55795 -0.558135,0.55795 -1.95366,1.67478 -4.465548,2.79067 -6.977342,3.06918 -0.837296,0 -1.674592,0.27944 -2.511795,0.27944 -8.372867,0 -15.350116,-6.69725 -15.350116,-15.06928 V 93.371871 C 57.5938,73.837976 73.502051,57.6528 93.317621,57.6528 h 150.710479 5.30285 c 7.53557,0.558135 14.51226,7.255385 14.51226,15.627041 z"
       fill="#f5df4d"
       id="path903"
       style="stroke-width:0.931467" />
    <path
       d="m 251.28423,130.76479 c 6.93664,0 12.55898,-5.62141 12.55898,-12.55711 0,-6.93571 -5.62234,-12.55711 -12.55898,-12.55711 -6.93663,0 -12.55897,5.6214 -12.55897,12.55711 0,6.9357 5.62234,12.55711 12.55897,12.55711 z"
       fill="#f5df4d"
       id="path905"
       style="stroke-width:0.931467" />
    <path
       d="m 251.28423,164.25197 c 6.93664,0 12.55898,-5.62234 12.55898,-12.55804 0,-6.93478 -5.62234,-12.55711 -12.55898,-12.55711 -6.93663,0 -12.55897,5.62233 -12.55897,12.55711 0,6.9357 5.62234,12.55804 12.55897,12.55804 z"
       fill="#f5df4d"
       id="path907"
       style="stroke-width:0.931467" />
    <path
       d="m 217.79239,164.25197 c 6.93664,0 12.55991,-5.62234 12.55991,-12.55804 0,-6.93478 -5.62327,-12.55711 -12.55991,-12.55711 -6.9357,0 -12.55897,5.62233 -12.55897,12.55711 0,6.9357 5.62327,12.55804 12.55897,12.55804 z"
       fill="#f5df4d"
       id="path909"
       style="stroke-width:0.931467" />
    <path
       d="m 150.81058,231.2254 c 6.9357,0 12.55897,-5.62233 12.55897,-12.55804 0,-6.93477 -5.62327,-12.55711 -12.55897,-12.55711 -6.93664,0 -12.55898,5.62234 -12.55898,12.55711 0,6.93571 5.62234,12.55804 12.55898,12.55804 z"
       fill="#f5df4d"
       id="path911"
       style="stroke-width:0.931467" />
    <path
       d="m 117.31967,264.71165 c 6.93571,0 12.55898,-5.62233 12.55898,-12.55711 0,-6.9357 -5.62327,-12.55804 -12.55898,-12.55804 -6.93664,0 -12.5599,5.62234 -12.5599,12.55804 0,6.93478 5.62326,12.55711 12.5599,12.55711 z"
       fill="#f5df4d"
       id="path913"
       style="stroke-width:0.931467" />
    <path
       d="m 251.28423,264.71165 c 6.93664,0 12.55898,-5.62233 12.55898,-12.55711 0,-6.9357 -5.62234,-12.55804 -12.55898,-12.55804 -6.93663,0 -12.55897,5.62234 -12.55897,12.55804 0,6.93478 5.62234,12.55711 12.55897,12.55711 z"
       fill="#f5df4d"
       id="path915"
       style="stroke-width:0.931467" />
    <path
       d="m 251.28423,197.73822 h -66.98274 c -6.97669,0 -12.55898,-5.58042 -12.55898,-12.55711 0,-6.97669 5.58229,-12.55711 12.55898,-12.55711 h 66.98274 c 6.97762,0 12.55898,5.58042 12.55898,12.55711 0,6.97669 -5.58136,12.55711 -12.55898,12.55711 z"
       fill="#f5df4d"
       id="path917"
       style="stroke-width:0.931467" />
    <path
       d="m 251.28423,231.2254 h -66.98274 c -6.97669,0 -12.55898,-5.58135 -12.55898,-12.55804 0,-6.97576 5.58229,-12.55711 12.55898,-12.55711 h 66.98274 c 6.97762,0 12.55898,5.58135 12.55898,12.55711 0,6.97669 -5.58136,12.55804 -12.55898,12.55804 z"
       fill="#f5df4d"
       id="path919"
       style="stroke-width:0.931467" />
    <path
       d="m 217.79239,264.71165 h -66.98181 c -6.97762,0 -12.55898,-5.58135 -12.55898,-12.55711 0,-6.97669 5.58136,-12.55804 12.55898,-12.55804 h 66.98181 c 6.97763,0 12.55991,5.58135 12.55991,12.55804 0,6.97576 -5.58228,12.55711 -12.55991,12.55711 z"
       fill="#f5df4d"
       id="path921"
       style="stroke-width:0.931467" />
    <path
       d="M 130.581,140.752 H 98.5764 l -9.045,22.609 c -0.3479,1.043 -0.6957,2.087 -0.6957,2.783 0,2.087 2.783,3.478 8.697,4.174 0.6958,0 1.0436,0.347 1.3915,0.695 0.3479,0.348 0.3479,1.044 0.3479,1.392 0,0.695 0,1.391 -0.3479,2.087 -2.4351,-0.348 -5.2182,-0.348 -8.3491,-0.348 -3.131,0 -5.5662,-0.348 -8.3492,-0.348 -2.0873,0 -3.8267,0 -5.914,0 -2.0873,0 -4.1746,0.348 -6.2619,0.696 -0.3479,-0.696 -0.3479,-1.392 -0.3479,-2.087 0,-0.696 0,-1.044 0.3479,-1.74 0.3479,-0.347 0.6958,-0.695 1.3916,-0.695 3.1309,-0.348 5.2182,-1.044 6.6097,-1.739 1.3915,-0.696 2.4352,-1.74 3.131,-3.131 L 115.623,84.0544 c 0.695,-1.7392 1.739,-2.4348 2.783,-2.4348 0.348,0 1.043,-1e-4 1.739,0.3478 l 34.788,83.4806 c 0.696,1.391 1.74,2.435 3.827,3.13 2.087,0.696 3.827,1.392 5.914,1.392 0.696,0.348 1.044,0.348 1.391,0.695 0.348,0.348 0.348,1.044 0.348,1.74 0,0.695 0,1.391 -0.348,2.087 -3.13,-0.348 -5.914,-0.348 -9.044,-0.348 -3.131,0 -5.914,-0.348 -8.35,-0.348 -2.783,0 -5.914,0 -9.045,0.348 -3.478,0 -6.609,0.348 -9.392,0.348 -0.348,-1.044 -0.348,-1.74 -0.348,-2.087 0,-0.696 0,-1.392 0.348,-1.74 0.348,-0.347 0.695,-0.347 1.043,-0.347 2.435,-0.348 4.523,-1.044 5.914,-1.74 1.392,-0.695 2.435,-1.391 2.435,-2.782 0,-0.696 -0.347,-1.392 -0.695,-2.087 z m -2.087,-5.566 -13.219,-34.088 -13.916,34.088 z"
       fill="#353535"
       stroke="#353535"
       stroke-width="2"
       id="path923" />
  </g>
</svg>
